<?xml version="1.0" encoding="utf-8"?>
<svg xmlns="http://www.w3.org/2000/svg" style="margin: auto; background: rgb(255, 251, 243); display: block; shape-rendering: auto;" width="281" height="250" preserveAspectRatio="xMidYMid">
<style type="text/css">
  text {
    text-anchor: middle; font-size: 30px; opacity: 0;
  }
</style>
<g style="transform-origin: 140.5px 125px; transform: scale(0.375);">
<g transform="translate(140.5,125)">
  <g transform="translate(0,0)"><g class="path" style="transform: scale(1); transform-origin: -298.36px 9.0624px; animation: 1s linear -0.625263s infinite normal forwards running beat-d3e0eb01-362a-456e-bdcc-6fad9e099f33;"><path d="M23.44-1.92L0.48-1.92L0.48-3.52L36.56-33.52L28-9.44L34.48-9.44L31.76-1.92L25.36-1.92L20.16 12.72L18.40 12.56L23.44-1.92zM26.16-9.44L32.96-28.40L10.24-9.44L26.16-9.44" fill="#51cacc" stroke="none" stroke-width="none" transform="translate(-316.8800048828125,19.462398681640636)" style="fill: rgb(81, 202, 204);"></path></g><g class="path" style="transform: scale(1); transform-origin: -260.68px 4.0224px; animation: 1s linear -0.590526s infinite normal forwards running beat-d3e0eb01-362a-456e-bdcc-6fad9e099f33;"><path d="M71.60-16.16L71.44-14.72L40.80-14.72L40.96-16.16L71.60-16.16" fill="#51cacc" stroke="none" stroke-width="none" transform="translate(-316.8800048828125,19.462398681640636)" style="fill: rgb(157, 248, 113);"></path></g><g class="path" style="transform: scale(1); transform-origin: -218.16px 2.5024px; animation: 1s linear -0.555789s infinite normal forwards running beat-d3e0eb01-362a-456e-bdcc-6fad9e099f33;"><path d="M92.48-47.04L92.48-47.04L92.48-47.04Q84.88-47.04 81.08-42.88L81.08-42.88L81.08-42.88Q77.28-38.72 77.28-29.52L77.28-29.52L75.44-29.52L75.44-29.52Q75.44-48.72 92-48.72L92-48.72L92-48.72Q97.36-48.72 107.12-44.64L107.12-44.64L107.12-44.64Q116.88-40.56 122-40.56L122-40.56L122-38.72L122-38.72Q119.92-38.72 117.28-39.28L117.28-39.28L117.28-39.28Q116.72-39.12 115.32-37.48L115.32-37.48L115.32-37.48Q113.92-35.84 112.72-33.76L112.72-33.76L112.72-33.76Q109.36-27.68 106.80-18.24L106.80-18.24L115.44-18.24L115.28-16.80L106.40-16.80L106.40-16.80Q105.84-14.96 105.12-11.76L105.12-11.76L105.12-11.76Q101.84 2.56 98.20 8.68L98.20 8.68L98.20 8.68Q94.56 14.80 87.52 14.80L87.52 14.80L87.52 14.80Q83.28 14.80 81.68 13.84L81.68 13.84L82.48 12.16L82.48 12.16Q83.60 13.28 88 13.28L88 13.28L88 13.28Q88.56 13.28 89.84 13.12L89.84 13.12L95.52-11.52L95.52-11.52Q95.76-12.56 96.24-14.48L96.24-14.48L96.24-14.48Q96.72-16.40 96.80-16.80L96.80-16.80L88.08-16.80L88.24-18.24L97.12-18.24L97.12-18.24Q100.24-30 103.32-35.40L103.32-35.40L103.32-35.40Q106.40-40.80 110.56-41.36L110.56-41.36L110.56-41.36Q109.60-41.76 106.28-43.20L106.28-43.20L106.28-43.20Q102.96-44.64 101.52-45.20L101.52-45.20L101.52-45.20Q96.64-47.04 92.48-47.04" fill="#51cacc" stroke="none" stroke-width="none" transform="translate(-316.8800048828125,19.462398681640636)" style="fill: rgb(224, 255, 119);"></path></g><g class="path" style="transform: scale(1); transform-origin: -176.84px 4.2624px; animation: 1s linear -0.521053s infinite normal forwards running beat-d3e0eb01-362a-456e-bdcc-6fad9e099f33;"><path d="M152.80-0.88L152.80-0.88L152.80-0.88Q154.72-0.88 156.80-3.12L156.80-3.12L158-2.16L158-2.16Q157.44-1.04 155.52-0.16L155.52-0.16L155.52-0.16Q153.60 0.72 151.28 0.72L151.28 0.72L151.28 0.72Q144 0.72 144-5.84L144-5.84L144-5.84Q144-8.64 145.44-15.84L145.44-15.84L145.44-15.84Q146.88-23.04 146.88-25.28L146.88-25.28L146.88-25.28Q146.88-28.72 143.60-28.72L143.60-28.72L143.60-28.72Q140.96-28.72 138.52-25.28L138.52-25.28L138.52-25.28Q136.08-21.84 134.48-15.84L134.48-15.84L131.76-0.88L131.76-0.88Q134.24-1.12 135.84-3.12L135.84-3.12L137.04-2.16L137.04-2.16Q134.64 0.72 131.04 0.72L131.04 0.72L131.04 0.72Q127.44 0.72 125.40-1.12L125.40-1.12L125.40-1.12Q123.36-2.96 123.36-5.92L123.36-5.92L123.36-5.92Q123.36-7.04 124.64-14.72L124.64-14.72L127.28-29.52L127.28-29.52Q124.88-29.28 123.28-27.28L123.28-27.28L122.08-28.24L122.08-28.24Q124.48-31.12 128.12-31.12L128.12-31.12L128.12-31.12Q131.76-31.12 133.76-29.28L133.76-29.28L133.76-29.28Q135.76-27.44 135.76-24.08L135.76-24.08L135.76-23.60L135.76-23.60Q139.04-31.12 146-31.12L146-31.12L146-31.12Q150.72-31.12 153.36-28.44L153.36-28.44L153.36-28.44Q156-25.76 156-21.04L156-21.04L156-21.04Q156-18.56 154.48-11.48L154.48-11.48L154.48-11.48Q152.96-4.40 152.80-0.88" fill="#51cacc" stroke="none" stroke-width="none" transform="translate(-316.8800048828125,19.462398681640636)" style="fill: rgb(222, 157, 214);"></path></g><g class="path" style="transform: scale(1); transform-origin: -138.96px 11.2624px; animation: 1s linear -0.486316s infinite normal forwards running beat-d3e0eb01-362a-456e-bdcc-6fad9e099f33;"><path d="M188.08 8.72L188.08 8.72L188.08 8.72Q190.96 8.72 193.04 6.48L193.04 6.48L194.16 7.44L194.16 7.44Q192.24 10.16 188.08 10.16L188.08 10.16L188.08 10.16Q186.32 10.16 184.48 9.76L184.48 9.76L184.48 9.76Q179.04 14.72 170.56 14.72L170.56 14.72L170.56 14.72Q165.52 14.72 162.76 13L162.76 13L162.76 13Q160.00 11.28 160.00 8.52L160.00 8.52L160.00 8.52Q160.00 5.76 161.72 4.12L161.72 4.12L161.72 4.12Q163.44 2.48 167.84 2.48L167.84 2.48L167.84 2.48Q172.24 2.48 179.44 6.08L179.44 6.08L181.92-7.20L181.92-7.20Q178.32-0.56 172.64-0.56L172.64-0.56L172.64-0.56Q161.76-0.56 161.76-11.28L161.76-11.28L161.76-11.28Q161.76-20.24 166.28-25.68L166.28-25.68L166.28-25.68Q170.80-31.12 177.84-31.12L177.84-31.12L177.84-31.12Q181.92-31.12 184.16-28.64L184.16-28.64L184.16-28.64Q184.80-27.92 185.44-26.48L185.44-26.48L186.16-30.40L186.16-30.40Q192.08-30.40 194.80-30.88L194.80-30.88L195.84-31.12L190.56-1.60L190.56-1.60Q189.36 4.64 185.76 8.48L185.76 8.48L185.76 8.48Q186.80 8.72 188.08 8.72zM170.80-8.80L170.80-8.80Q170.80-5.12 171.52-3.88L171.52-3.88L171.52-3.88Q172.24-2.64 174.24-2.64L174.24-2.64L174.24-2.64Q176.24-2.64 178.32-4.80L178.32-4.80L178.32-4.80Q180.40-6.96 181.32-8.84L181.32-8.84L181.32-8.84Q182.24-10.72 182.88-12.48L182.88-12.48L184.56-21.68L184.56-22.24L184.56-22.24Q184.56-29.60 177.84-29.60L177.84-29.60L177.84-29.60Q175.28-29.60 173.04-22.64L173.04-22.64L173.04-22.64Q170.80-15.68 170.80-8.80L170.80-8.80zM170.24 13.12L170.24 13.12L170.24 13.12Q176.64 13.12 178.88 7.60L178.88 7.60L177.76 7.04L177.76 7.04Q176.80 6.56 176.60 6.44L176.60 6.44L176.60 6.44Q176.40 6.32 175.52 5.92L175.52 5.92L175.52 5.92Q174.64 5.52 174.24 5.40L174.24 5.40L174.24 5.40Q173.84 5.28 173.00 4.96L173.00 4.96L173.00 4.96Q172.16 4.64 171.60 4.52L171.60 4.52L171.60 4.52Q171.04 4.40 170.32 4.24L170.32 4.24L170.32 4.24Q169.12 4 166.80 4L166.80 4L166.80 4Q164.48 4 163.08 5.12L163.08 5.12L163.08 5.12Q161.68 6.24 161.68 8.40L161.68 8.40L161.68 8.40Q161.68 10.56 164.00 11.84L164.00 11.84L164.00 11.84Q166.32 13.12 170.24 13.12" fill="#51cacc" stroke="none" stroke-width="none" transform="translate(-316.8800048828125,19.462398681640636)" style="fill: rgb(255, 112, 142);"></path></g><g class="path" style="transform: scale(1); transform-origin: -102.88px 3.9024px; animation: 1s linear -0.451579s infinite normal forwards running beat-d3e0eb01-362a-456e-bdcc-6fad9e099f33;"><path d="M200.64-27.28L199.44-28.24L199.44-28.24Q201.84-31.12 205.48-31.12L205.48-31.12L205.48-31.12Q209.12-31.12 211.12-29.28L211.12-29.28L211.12-29.28Q213.12-27.44 213.12-24.08L213.12-24.08L213.12-23.60L213.12-23.60Q216.72-31.12 222.48-31.12L222.48-31.12L222.48-31.12Q228.64-31.12 228.64-24.72L228.64-24.72L228.64-24.72Q228.64-22.08 226.88-19.12L226.88-19.12L226.88-19.12Q225.12-16.16 223.36-13.48L223.36-13.48L223.36-13.48Q221.60-10.80 221.60-8.72L221.60-8.72L219.68-8.72L219.68-8.72Q219.68-11.68 223.12-16.72L223.12-16.72L223.12-16.72Q226.56-21.76 226.56-24.52L226.56-24.52L226.56-24.52Q226.56-27.28 225.48-28.28L225.48-28.28L225.48-28.28Q224.40-29.28 222.28-29.28L222.28-29.28L222.28-29.28Q220.16-29.28 218.12-27.44L218.12-27.44L218.12-27.44Q216.08-25.60 214.72-22.80L214.72-22.80L214.72-22.80Q212.56-18.64 211.84-16L211.84-16L211.84-15.92L208.96 0L199.36 0L204.64-29.52L204.64-29.52Q202.24-29.28 200.64-27.28L200.64-27.28" fill="#51cacc" stroke="none" stroke-width="none" transform="translate(-316.8800048828125,19.462398681640636)" style="fill: rgb(81, 202, 204);"></path></g><g class="path" style="transform: scale(1); transform-origin: -72.8px 4.2624px; animation: 1s linear -0.416842s infinite normal forwards running beat-d3e0eb01-362a-456e-bdcc-6fad9e099f33;"><path d="M247.60-31.12L247.60-31.12L247.60-31.12Q257.76-31.12 257.76-23.04L257.76-23.04L257.76-23.04Q257.76-18 253.00-15.40L253.00-15.40L253.00-15.40Q248.24-12.80 239.44-12.72L239.44-12.72L239.44-12.72Q239.28-9.84 239.28-8.16L239.28-8.16L239.28-8.16Q239.28-4.56 240.92-2.84L240.92-2.84L240.92-2.84Q242.56-1.12 245.04-1.12L245.04-1.12L245.04-1.12Q247.52-1.12 249.56-2.08L249.56-2.08L249.56-2.08Q251.60-3.04 252.80-4.36L252.80-4.36L252.80-4.36Q254.00-5.68 254.88-7.12L254.88-7.12L254.88-7.12Q256.48-9.76 256.48-10.48L256.48-10.48L257.92-9.84L257.92-9.84Q257.68-8.56 256.48-6.44L256.48-6.44L256.48-6.44Q255.28-4.32 253.84-2.96L253.84-2.96L253.84-2.96Q252.40-1.60 249.60-0.44L249.60-0.44L249.60-0.44Q246.80 0.72 243.36 0.72L243.36 0.72L243.36 0.72Q236.88 0.72 233.56-2.36L233.56-2.36L233.56-2.36Q230.24-5.44 230.24-10.80L230.24-10.80L230.24-10.80Q230.24-20.32 234.96-25.72L234.96-25.72L234.96-25.72Q239.68-31.12 247.60-31.12zM255.76-23.04L255.76-23.04Q255.76-25.68 254.20-27.40L254.20-27.40L254.20-27.40Q252.64-29.12 249.56-29.12L249.56-29.12L249.56-29.12Q246.48-29.12 243.56-25.44L243.56-25.44L243.56-25.44Q240.64-21.76 239.68-14.56L239.68-14.56L239.68-14.56Q255.76-14.64 255.76-23.04L255.76-23.04" fill="#51cacc" stroke="none" stroke-width="none" transform="translate(-316.8800048828125,19.462398681640636)" style="fill: rgb(157, 248, 113);"></path></g><g class="path" style="transform: scale(1); transform-origin: -36.68px -6.0976px; animation: 1s linear -0.382105s infinite normal forwards running beat-d3e0eb01-362a-456e-bdcc-6fad9e099f33;"><path d="M289.84 0.72L289.84 0.72L289.84 0.72Q282.80 0.72 282.16-5.28L282.16-5.28L282.16-5.28Q278.64 0.72 273.20 0.72L273.20 0.72L273.20 0.72Q267.76 0.72 264.88-2.36L264.88-2.36L264.88-2.36Q262-5.44 262-10.80L262-10.80L262-10.80Q262-20.24 266.48-25.68L266.48-25.68L266.48-25.68Q270.96-31.12 278.08-31.12L278.08-31.12L278.08-31.12Q282.16-31.12 284.40-28.64L284.40-28.64L284.40-28.64Q285.36-27.36 285.60-26.72L285.60-26.72L289.92-50.24L289.92-50.24Q287.52-50 285.92-48L285.92-48L284.72-48.96L284.72-48.96Q287.12-51.84 290.76-51.84L290.76-51.84L290.76-51.84Q294.40-51.84 296.40-50L296.40-50L296.40-50Q298.40-48.16 298.40-44.80L298.40-44.80L298.40-44.80Q298.40-44.16 298.24-42.72L298.24-42.72L298.24-42.72Q294.32-20.72 290.64-0.88L290.64-0.88L290.64-0.88Q293.04-1.12 294.64-3.12L294.64-3.12L295.84-2.16L295.84-2.16Q293.44 0.72 289.84 0.72zM271.04-7.52L271.04-7.52Q271.04-3.84 271.80-2.48L271.80-2.48L271.80-2.48Q272.56-1.12 274.20-1.12L274.20-1.12L274.20-1.12Q275.84-1.12 277.36-2.24L277.36-2.24L277.36-2.24Q278.88-3.36 279.92-5.12L279.92-5.12L279.92-5.12Q281.84-8.08 282.64-10.16L282.64-10.16L284.96-22.80L284.96-22.80Q284.80-25.36 283.28-27.48L283.28-27.48L283.28-27.48Q281.76-29.60 278.08-29.60L278.08-29.60L278.08-29.60Q275.52-29.60 273.28-22.08L273.28-22.08L273.28-22.08Q271.04-14.56 271.04-7.52L271.04-7.52" fill="#51cacc" stroke="none" stroke-width="none" transform="translate(-316.8800048828125,19.462398681640636)" style="fill: rgb(224, 255, 119);"></path></g><g class="path" style="transform: scale(1); transform-origin: -8.52002px 4.2624px; animation: 1s linear -0.347368s infinite normal forwards running beat-d3e0eb01-362a-456e-bdcc-6fad9e099f33;"><path d="M315.04-2.16L315.04-2.16Q312.64 0.72 309.04 0.72L309.04 0.72L309.04 0.72Q305.44 0.72 303.40-1.12L303.40-1.12L303.40-1.12Q301.36-2.96 301.36-5.92L301.36-5.92L301.36-5.92Q301.36-6.96 302.64-14.64L302.64-14.64L305.28-28.96L301.92-28.96L302.08-30.40L305.52-30.40L305.52-30.40Q311.44-30.40 314.24-30.88L314.24-30.88L315.36-31.12L309.84-0.88L309.84-0.88Q312.24-1.12 313.84-3.12L313.84-3.12L315.04-2.16" fill="#51cacc" stroke="none" stroke-width="none" transform="translate(-316.8800048828125,19.462398681640636)" style="fill: rgb(222, 157, 214);"></path></g><g class="path" style="transform: scale(1); transform-origin: -4.75999px -23.4576px; animation: 1s linear -0.312632s infinite normal forwards running beat-d3e0eb01-362a-456e-bdcc-6fad9e099f33;"><path d="M308.00-38.80L308.00-38.80L308.00-38.80Q306.32-40.48 306.32-42.88L306.32-42.88L306.32-42.88Q306.32-45.28 308.00-47L308.00-47L308.00-47Q309.68-48.72 312.08-48.72L312.08-48.72L312.08-48.72Q314.48-48.72 316.20-47L316.20-47L316.20-47Q317.92-45.28 317.92-42.88L317.92-42.88L317.92-42.88Q317.92-40.48 316.20-38.80L316.20-38.80L316.20-38.80Q314.48-37.12 312.08-37.12L312.08-37.12L312.08-37.12Q309.68-37.12 308.00-38.80" fill="#51cacc" stroke="none" stroke-width="none" transform="translate(-316.8800048828125,19.462398681640636)" style="fill: rgb(255, 112, 142);"></path></g><g class="path" style="transform: scale(1); transform-origin: 16.48px 4.2624px; animation: 1s linear -0.277895s infinite normal forwards running beat-d3e0eb01-362a-456e-bdcc-6fad9e099f33;"><path d="M336.88-31.12L336.88-31.12L336.88-31.12Q347.04-31.12 347.04-23.04L347.04-23.04L347.04-23.04Q347.04-18 342.28-15.40L342.28-15.40L342.28-15.40Q337.52-12.80 328.72-12.72L328.72-12.72L328.72-12.72Q328.56-9.84 328.56-8.16L328.56-8.16L328.56-8.16Q328.56-4.56 330.20-2.84L330.20-2.84L330.20-2.84Q331.84-1.12 334.32-1.12L334.32-1.12L334.32-1.12Q336.80-1.12 338.84-2.08L338.84-2.08L338.84-2.08Q340.88-3.04 342.08-4.36L342.08-4.36L342.08-4.36Q343.28-5.68 344.16-7.12L344.16-7.12L344.16-7.12Q345.76-9.76 345.76-10.48L345.76-10.48L347.20-9.84L347.20-9.84Q346.96-8.56 345.76-6.44L345.76-6.44L345.76-6.44Q344.56-4.32 343.12-2.96L343.12-2.96L343.12-2.96Q341.68-1.60 338.88-0.44L338.88-0.44L338.88-0.44Q336.08 0.72 332.64 0.72L332.64 0.72L332.64 0.72Q326.16 0.72 322.84-2.36L322.84-2.36L322.84-2.36Q319.52-5.44 319.52-10.80L319.52-10.80L319.52-10.80Q319.52-20.32 324.24-25.72L324.24-25.72L324.24-25.72Q328.96-31.12 336.88-31.12zM345.04-23.04L345.04-23.04Q345.04-25.68 343.48-27.40L343.48-27.40L343.48-27.40Q341.92-29.12 338.84-29.12L338.84-29.12L338.84-29.12Q335.76-29.12 332.84-25.44L332.84-25.44L332.84-25.44Q329.92-21.76 328.96-14.56L328.96-14.56L328.96-14.56Q345.04-14.64 345.04-23.04L345.04-23.04" fill="#51cacc" stroke="none" stroke-width="none" transform="translate(-316.8800048828125,19.462398681640636)" style="fill: rgb(81, 202, 204);"></path></g><g class="path" style="transform: scale(1); transform-origin: 52.68px 4.2624px; animation: 1s linear -0.243158s infinite normal forwards running beat-d3e0eb01-362a-456e-bdcc-6fad9e099f33;"><path d="M382.32-0.88L382.32-0.88L382.32-0.88Q384.24-0.88 386.32-3.12L386.32-3.12L387.52-2.16L387.52-2.16Q386.96-1.04 385.04-0.16L385.04-0.16L385.04-0.16Q383.12 0.72 380.80 0.72L380.80 0.72L380.80 0.72Q373.52 0.72 373.52-5.84L373.52-5.84L373.52-5.84Q373.52-8.64 374.96-15.84L374.96-15.84L374.96-15.84Q376.40-23.04 376.40-25.28L376.40-25.28L376.40-25.28Q376.40-28.72 373.12-28.72L373.12-28.72L373.12-28.72Q370.48-28.72 368.04-25.28L368.04-25.28L368.04-25.28Q365.60-21.84 364.00-15.84L364.00-15.84L361.28-0.88L361.28-0.88Q363.76-1.12 365.36-3.12L365.36-3.12L366.56-2.16L366.56-2.16Q364.16 0.72 360.56 0.72L360.56 0.72L360.56 0.72Q356.96 0.72 354.92-1.12L354.92-1.12L354.92-1.12Q352.88-2.96 352.88-5.92L352.88-5.92L352.88-5.92Q352.88-7.04 354.16-14.72L354.16-14.72L356.80-29.52L356.80-29.52Q354.40-29.28 352.80-27.28L352.80-27.28L351.60-28.24L351.60-28.24Q354.00-31.12 357.64-31.12L357.64-31.12L357.64-31.12Q361.28-31.12 363.28-29.28L363.28-29.28L363.28-29.28Q365.28-27.44 365.28-24.08L365.28-24.08L365.28-23.60L365.28-23.60Q368.56-31.12 375.52-31.12L375.52-31.12L375.52-31.12Q380.24-31.12 382.88-28.44L382.88-28.44L382.88-28.44Q385.52-25.76 385.52-21.04L385.52-21.04L385.52-21.04Q385.52-18.56 384.00-11.48L384.00-11.48L384.00-11.48Q382.48-4.40 382.32-0.88" fill="#51cacc" stroke="none" stroke-width="none" transform="translate(-316.8800048828125,19.462398681640636)" style="fill: rgb(157, 248, 113);"></path></g><g class="path" style="transform: scale(1); transform-origin: 135.6px 3.0224px; animation: 1s linear -0.208421s infinite normal forwards running beat-d3e0eb01-362a-456e-bdcc-6fad9e099f33;"><path d="M428.24 12.24L428.24 12.24L428.24 10.72L428.24 10.72Q433.20 10.48 434.96 8.16L434.96 8.16L434.96 8.16Q436.72 5.84 438.24-2.56L438.24-2.56L445.92-46.80L445.92-46.80Q429.52-45.44 420.60-39.72L420.60-39.72L420.60-39.72Q411.68-34 411.68-24.80L411.68-24.80L411.68-24.80Q411.68-20.64 414.56-17.76L414.56-17.76L414.56-17.76Q416.56-15.84 419.84-14.84L419.84-14.84L419.84-14.84Q423.12-13.84 425.24-13.72L425.24-13.72L425.24-13.72Q427.36-13.60 427.52-13.76L427.52-13.76L427.52-12.08L427.52-12.08Q418.08-12.08 413.52-16.56L413.52-16.56L413.52-16.56Q410.16-19.68 410.16-24.80L410.16-24.80L410.16-24.80Q410.16-36.24 422.12-42.48L422.12-42.48L422.12-42.48Q434.08-48.72 455.92-48.72L455.92-48.72L455.92-48.72Q469.52-48.72 475.24-45.04L475.24-45.04L475.24-45.04Q480.96-41.36 480.96-35L480.96-35L480.96-35Q480.96-28.64 476.60-24.08L476.60-24.08L476.60-24.08Q472.24-19.52 465.12-17.04L465.12-17.04L465.12-17.04Q475.52 4.56 478.48 8.92L478.48 8.92L478.48 8.92Q481.44 13.28 485.60 13.28L485.60 13.28L485.60 13.28Q488.08 13.28 490.04 11.72L490.04 11.72L490.04 11.72Q492.00 10.16 492.80 7.52L492.80 7.52L494.80 7.52L494.80 7.52Q492.24 15.84 482.24 15.84L482.24 15.84L482.24 15.84Q475.92 15.84 471.80 12.84L471.80 12.84L471.80 12.84Q467.68 9.84 464.88 3.76L464.88 3.76L456.24-14.96L456.24-14.96Q453.04-14.64 451.52-14.64L451.52-14.64L451.52-14.64Q451.28-13.44 450.80-10.56L450.80-10.56L450.80-10.56Q450.32-7.68 450.00-6.24L450.00-6.24L450.00-6.24Q448.40 2.40 441.96 7.32L441.96 7.32L441.96 7.32Q435.52 12.24 428.24 12.24zM478.88-34.72L478.88-34.72L478.88-34.72Q478.88-46.96 456.64-47.20L456.64-47.20L451.84-16.40L451.84-16.40Q463.20-16.72 471.04-22.12L471.04-22.12L471.04-22.12Q478.88-27.52 478.88-34.72" fill="#51cacc" stroke="none" stroke-width="none" transform="translate(-316.8800048828125,19.462398681640636)" style="fill: rgb(224, 255, 119);"></path></g><g class="path" style="transform: scale(1); transform-origin: 181.68px 4.2624px; animation: 1s linear -0.173684s infinite normal forwards running beat-d3e0eb01-362a-456e-bdcc-6fad9e099f33;"><path d="M502.08-31.12L502.08-31.12L502.08-31.12Q512.24-31.12 512.24-23.04L512.24-23.04L512.24-23.04Q512.24-18 507.48-15.40L507.48-15.40L507.48-15.40Q502.72-12.80 493.92-12.72L493.92-12.72L493.92-12.72Q493.76-9.84 493.76-8.16L493.76-8.16L493.76-8.16Q493.76-4.56 495.40-2.84L495.40-2.84L495.40-2.84Q497.04-1.12 499.52-1.12L499.52-1.12L499.52-1.12Q502.00-1.12 504.04-2.08L504.04-2.08L504.04-2.08Q506.08-3.04 507.28-4.36L507.28-4.36L507.28-4.36Q508.48-5.68 509.36-7.12L509.36-7.12L509.36-7.12Q510.96-9.76 510.96-10.48L510.96-10.48L512.40-9.84L512.40-9.84Q512.16-8.56 510.96-6.44L510.96-6.44L510.96-6.44Q509.76-4.32 508.32-2.96L508.32-2.96L508.32-2.96Q506.88-1.60 504.08-0.44L504.08-0.44L504.08-0.44Q501.28 0.72 497.84 0.72L497.84 0.72L497.84 0.72Q491.36 0.72 488.04-2.36L488.04-2.36L488.04-2.36Q484.72-5.44 484.72-10.80L484.72-10.80L484.72-10.80Q484.72-20.32 489.44-25.72L489.44-25.72L489.44-25.72Q494.16-31.12 502.08-31.12zM510.24-23.04L510.24-23.04Q510.24-25.68 508.68-27.40L508.68-27.40L508.68-27.40Q507.12-29.12 504.04-29.12L504.04-29.12L504.04-29.12Q500.96-29.12 498.04-25.44L498.04-25.44L498.04-25.44Q495.12-21.76 494.16-14.56L494.16-14.56L494.16-14.56Q510.24-14.64 510.24-23.04L510.24-23.04" fill="#51cacc" stroke="none" stroke-width="none" transform="translate(-316.8800048828125,19.462398681640636)" style="fill: rgb(222, 157, 214);"></path></g><g class="path" style="transform: scale(1); transform-origin: 214.16px 4.2624px; animation: 1s linear -0.138947s infinite normal forwards running beat-d3e0eb01-362a-456e-bdcc-6fad9e099f33;"><path d="M535.84-16.72L535.84-16.72L535.84-16.72Q534.16-18.40 534.16-20.80L534.16-20.80L534.16-20.80Q534.16-23.20 535.84-24.92L535.84-24.92L535.84-24.92Q537.52-26.64 539.92-26.64L539.92-26.64L539.92-26.64Q540.64-26.64 541.76-26.32L541.76-26.32L541.76-26.32Q540.24-29.12 536.08-29.12L536.08-29.12L536.08-29.12Q531.92-29.12 528.72-23.84L528.72-23.84L528.72-23.84Q525.52-18.56 525.52-8.16L525.52-8.16L525.52-8.16Q525.52-4.56 527.16-2.84L527.16-2.84L527.16-2.84Q528.80-1.12 531.28-1.12L531.28-1.12L531.28-1.12Q533.76-1.12 535.80-2.08L535.80-2.08L535.80-2.08Q537.84-3.04 539.04-4.36L539.04-4.36L539.04-4.36Q540.24-5.68 541.12-7.12L541.12-7.12L541.12-7.12Q542.72-9.76 542.72-10.48L542.72-10.48L544.16-9.84L544.16-9.84Q543.92-8.56 542.72-6.44L542.72-6.44L542.72-6.44Q541.52-4.32 540.08-2.96L540.08-2.96L540.08-2.96Q538.64-1.60 535.84-0.44L535.84-0.44L535.84-0.44Q533.04 0.72 529.60 0.72L529.60 0.72L529.60 0.72Q523.12 0.72 519.80-2.36L519.80-2.36L519.80-2.36Q516.48-5.44 516.48-10.80L516.48-10.80L516.48-10.80Q516.48-20.32 521.24-25.72L521.24-25.72L521.24-25.72Q526.00-31.12 534.16-31.12L534.16-31.12L534.16-31.12Q539.68-31.12 542.64-28.32L542.64-28.32L542.64-28.32Q545.60-25.52 545.60-20.96L545.60-20.96L545.60-20.96Q545.60-18.08 543.88-16.56L543.88-16.56L543.88-16.56Q542.16-15.04 539.84-15.04L539.84-15.04L539.84-15.04Q537.52-15.04 535.84-16.72" fill="#51cacc" stroke="none" stroke-width="none" transform="translate(-316.8800048828125,19.462398681640636)" style="fill: rgb(255, 112, 142);"></path></g><g class="path" style="transform: scale(1); transform-origin: 240.2px 4.2624px; animation: 1s linear -0.104211s infinite normal forwards running beat-d3e0eb01-362a-456e-bdcc-6fad9e099f33;"><path d="M563.76-2.16L563.76-2.16Q561.36 0.72 557.76 0.72L557.76 0.72L557.76 0.72Q554.16 0.72 552.12-1.12L552.12-1.12L552.12-1.12Q550.08-2.96 550.08-5.92L550.08-5.92L550.08-5.92Q550.08-6.96 551.36-14.64L551.36-14.64L554.00-28.96L550.64-28.96L550.80-30.40L554.24-30.40L554.24-30.40Q560.16-30.40 562.96-30.88L562.96-30.88L564.08-31.12L558.56-0.88L558.56-0.88Q560.96-1.12 562.56-3.12L562.56-3.12L563.76-2.16" fill="#51cacc" stroke="none" stroke-width="none" transform="translate(-316.8800048828125,19.462398681640636)" style="fill: rgb(81, 202, 204);"></path></g><g class="path" style="transform: scale(1); transform-origin: 243.96px -23.4576px; animation: 1s linear -0.0694737s infinite normal forwards running beat-d3e0eb01-362a-456e-bdcc-6fad9e099f33;"><path d="M556.72-38.80L556.72-38.80L556.72-38.80Q555.04-40.48 555.04-42.88L555.04-42.88L555.04-42.88Q555.04-45.28 556.72-47L556.72-47L556.72-47Q558.40-48.72 560.80-48.72L560.80-48.72L560.80-48.72Q563.20-48.72 564.92-47L564.92-47L564.92-47Q566.64-45.28 566.64-42.88L566.64-42.88L566.64-42.88Q566.64-40.48 564.92-38.80L564.92-38.80L564.92-38.80Q563.20-37.12 560.80-37.12L560.80-37.12L560.80-37.12Q558.40-37.12 556.72-38.80" fill="#51cacc" stroke="none" stroke-width="none" transform="translate(-316.8800048828125,19.462398681640636)" style="fill: rgb(157, 248, 113);"></path></g><g class="path" style="transform: scale(1); transform-origin: 267.76px 9.5424px; animation: 1s linear -0.0347368s infinite normal forwards running beat-d3e0eb01-362a-456e-bdcc-6fad9e099f33;"><path d="M584.32 0.64L584.32 0.64L584.32 0.64Q580.64 0.64 578.48-1.04L578.48-1.04L576.08 11.84L566.56 11.84L574.08-30.08L574.08-30.08Q571.68-29.84 570.08-27.84L570.08-27.84L568.88-28.80L568.88-28.80Q571.28-31.68 574.84-31.68L574.84-31.68L574.84-31.68Q578.40-31.68 580.40-29.96L580.40-29.96L580.40-29.96Q582.40-28.24 582.56-25.12L582.56-25.12L582.56-25.12Q586.08-31.12 591.52-31.12L591.52-31.12L591.52-31.12Q596.96-31.12 599.84-28.04L599.84-28.04L599.84-28.04Q602.72-24.96 602.72-19.60L602.72-19.60L602.72-19.60Q602.72-10.16 597.60-4.76L597.60-4.76L597.60-4.76Q592.48 0.64 584.32 0.64zM581.92-19.92L579.04-4.24L579.04-4.24Q580.40-1.20 584.20-1.20L584.20-1.20L584.20-1.20Q588.00-1.20 590.84-7.60L590.84-7.60L590.84-7.60Q593.68-14 593.68-22.88L593.68-22.88L593.68-22.88Q593.68-26.56 592.92-27.92L592.92-27.92L592.92-27.92Q592.16-29.28 590.16-29.28L590.16-29.28L590.16-29.28Q588.16-29.28 586.04-26.88L586.04-26.88L586.04-26.88Q583.92-24.48 582.96-22.36L582.96-22.36L582.96-22.36Q582.00-20.24 582.00-19.92L582.00-19.92L581.92-19.92" fill="#51cacc" stroke="none" stroke-width="none" transform="translate(-316.8800048828125,19.462398681640636)" style="fill: rgb(224, 255, 119);"></path></g><g class="path" style="transform: scale(1); transform-origin: 303.52px 4.2624px; animation: 1s linear 0s infinite normal forwards running beat-d3e0eb01-362a-456e-bdcc-6fad9e099f33;"><path d="M623.92-31.12L623.92-31.12L623.92-31.12Q634.08-31.12 634.08-23.04L634.08-23.04L634.08-23.04Q634.08-18 629.32-15.40L629.32-15.40L629.32-15.40Q624.56-12.80 615.76-12.72L615.76-12.72L615.76-12.72Q615.60-9.84 615.60-8.16L615.60-8.16L615.60-8.16Q615.60-4.56 617.24-2.84L617.24-2.84L617.24-2.84Q618.88-1.12 621.36-1.12L621.36-1.12L621.36-1.12Q623.84-1.12 625.88-2.08L625.88-2.08L625.88-2.08Q627.92-3.04 629.12-4.36L629.12-4.36L629.12-4.36Q630.32-5.68 631.20-7.12L631.20-7.12L631.20-7.12Q632.80-9.76 632.80-10.48L632.80-10.48L634.24-9.84L634.24-9.84Q634.00-8.56 632.80-6.44L632.80-6.44L632.80-6.44Q631.60-4.32 630.16-2.96L630.16-2.96L630.16-2.96Q628.72-1.60 625.92-0.44L625.92-0.44L625.92-0.44Q623.12 0.72 619.68 0.72L619.68 0.72L619.68 0.72Q613.20 0.72 609.88-2.36L609.88-2.36L609.88-2.36Q606.56-5.44 606.56-10.80L606.56-10.80L606.56-10.80Q606.56-20.32 611.28-25.72L611.28-25.72L611.28-25.72Q616.00-31.12 623.92-31.12zM632.08-23.04L632.08-23.04Q632.08-25.68 630.52-27.40L630.52-27.40L630.52-27.40Q628.96-29.12 625.88-29.12L625.88-29.12L625.88-29.12Q622.80-29.12 619.88-25.44L619.88-25.44L619.88-25.44Q616.96-21.76 616.00-14.56L616.00-14.56L616.00-14.56Q632.08-14.64 632.08-23.04L632.08-23.04" fill="#51cacc" stroke="none" stroke-width="none" transform="translate(-316.8800048828125,19.462398681640636)" style="fill: rgb(222, 157, 214);"></path></g></g>
</g>
</g>
<style id="beat-d3e0eb01-362a-456e-bdcc-6fad9e099f33" data-anikit="">@keyframes beat-d3e0eb01-362a-456e-bdcc-6fad9e099f33
{
  0% {
    animation-timing-function: cubic-bezier(0.0793,0.2103,0.0465,0.8713);
    transform: scale(1);
  }
  31% {
    animation-timing-function: cubic-bezier(0.7876,0.1781,0.849,0.7096);
    transform: scale(1.35);
  }
  62% {
    animation-timing-function: cubic-bezier(0.1248,0.2733,0.2105,0.8777);
    transform: scale(1.056);
  }
  81% {
    animation-timing-function: cubic-bezier(0.9284,0.1745,0.9008,0.743);
    transform: scale(1.2142);
  }
  100% {
    transform: scale(1);
  }
}</style></svg>